<svg width="22" height="22" viewBox="0 0 22 22" fill="none" xmlns="http://www.w3.org/2000/svg">
<g id="Group">
<path id="Vector" d="M9.49062 6.88312C8.43843 7.68085 7.44282 8.55059 6.51097 9.48607C2.12022 13.8768 -0.102945 18.7693 1.54281 20.4166C3.18857 22.0624 8.08262 19.8377 12.4718 15.4485C13.4074 14.5161 14.2771 13.52 15.0748 12.4673" stroke="#0A66C2" stroke-width="1.5" stroke-linecap="round" stroke-linejoin="round"/>
<path id="Vector_2" d="M15.0746 12.4672C17.6637 15.9039 18.7181 19.1367 17.4398 20.415C15.7925 22.0623 10.9 19.8376 6.50926 15.4484C2.1216 11.0561 -0.101567 6.16519 1.54419 4.51788C2.82251 3.24111 6.05536 4.29557 9.492 6.88308" stroke="#0A66C2" stroke-width="1.5" stroke-linecap="round" stroke-linejoin="round"/>
<path id="Vector_3" d="M8.71887 12.4672C8.71887 12.672 8.8002 12.8683 8.94497 13.0131C9.08973 13.1578 9.28607 13.2392 9.4908 13.2392C9.69553 13.2392 9.89188 13.1578 10.0366 13.0131C10.1814 12.8683 10.2627 12.672 10.2627 12.4672C10.2627 12.2625 10.1814 12.0662 10.0366 11.9214C9.89188 11.7766 9.69553 11.6953 9.4908 11.6953C9.28607 11.6953 9.08973 11.7766 8.94497 11.9214C8.8002 12.0662 8.71887 12.2625 8.71887 12.4672ZM12.594 5.74526C12.1077 5.66035 12.1077 4.96407 12.594 4.8807C13.4531 4.73187 14.2484 4.33025 14.8782 3.72717C15.5079 3.12409 15.9436 2.34693 16.1294 1.49501L16.1572 1.36069C16.2622 0.882093 16.9446 0.879006 17.0526 1.35606L17.0897 1.51199C17.2835 2.35969 17.7233 3.1313 18.3539 3.73004C18.9845 4.32878 19.7778 4.728 20.6344 4.87761C21.1223 4.96252 21.1223 5.66344 20.6344 5.74681C19.7778 5.89642 18.9845 6.29563 18.3539 6.89438C17.7233 7.49312 17.2835 8.26473 17.0897 9.11243L17.0526 9.26836C16.9446 9.74696 16.2622 9.74387 16.1572 9.26527L16.1263 9.13095C15.9405 8.27904 15.5048 7.50188 14.8751 6.89879C14.2453 6.29571 13.45 5.89409 12.5909 5.74526H12.594Z" stroke="#0A66C2" stroke-width="1.5" stroke-linecap="round" stroke-linejoin="round"/>
</g>
</svg>
