<svg width="32" height="32" viewBox="0 0 32 32" fill="none" xmlns="http://www.w3.org/2000/svg">
<g id="Black">
<g id="Vector">
<path fill-rule="evenodd" clip-rule="evenodd" d="M1.16374e-05 7.44509C0.00626323 3.76042 2.75071 0.601231 6.40789 0.0694866C7.86451 -0.143211 9.48367 0.138302 10.8403 0.832697C13.0096 1.93998 14.4349 3.94184 14.8475 6.45667L14.885 6.69439H18.1234H21.3617L21.493 6.33155C21.9493 5.09916 23.0434 4.28591 24.3812 4.21083C25.3502 4.14828 26.1442 4.45481 26.8506 5.16172C27.5008 5.81232 27.8196 6.56928 27.8196 7.46386C27.8196 8.95274 26.7631 10.2977 25.3189 10.6418C24.5875 10.8107 23.531 10.6731 23.0121 10.3415C22.8621 10.2477 22.8121 10.2977 16.5606 16.5534L16.5605 16.5536L10.2589 22.8594L10.3776 23.0784C10.4402 23.2035 10.5214 23.4224 10.5652 23.5663L10.6465 23.8353H13.8848H17.1231L17.1606 23.5976C17.4607 21.7772 18.1796 20.3884 19.4487 19.1747C20.5115 18.1613 21.8431 17.4794 23.2434 17.2354C24.4562 17.0227 25.9879 17.1541 27.1444 17.5795C30.1577 18.6805 32.1644 21.7396 31.9894 24.9551C31.8018 28.4083 29.3325 31.2297 25.9128 31.9116C25.2689 32.0429 23.731 32.0242 23.0684 31.8803C20.5865 31.3485 18.561 29.647 17.6295 27.3198C17.4607 26.8882 17.2606 26.1562 17.1606 25.5682L17.1231 25.3367H13.8848H10.6465L10.5152 25.6933C10.0588 26.9319 8.96479 27.7452 7.62695 27.8203C5.76398 27.9329 4.18858 26.4377 4.18858 24.5547C4.19483 23.0971 5.15757 21.8397 6.59544 21.4206C7.32062 21.2141 8.33963 21.3142 8.95854 21.6645L9.1961 21.7959L15.4852 15.5026L21.7743 9.20923L21.6118 8.87142C21.5242 8.69 21.4305 8.45853 21.4117 8.36469L21.3679 8.19579H18.1296H14.8913L14.8538 8.36469C14.8383 8.4475 14.8142 8.59882 14.7922 8.73717C14.7876 8.76605 14.7831 8.79436 14.7788 8.82137C14.71 9.31558 14.3724 10.2727 14.0598 10.8858C13.0158 12.9252 11.0028 14.4078 8.76474 14.7957C7.98329 14.9333 6.75173 14.9145 5.98278 14.7581C2.5069 14.0512 -0.00623995 10.9796 1.16374e-05 7.44509ZM12.7845 4.84893C11.9593 3.13483 10.3464 1.92747 8.45841 1.59591C7.21434 1.37695 6.02029 1.55212 4.84499 2.12765C1.60042 3.71037 0.525145 7.75788 2.53816 10.792L2.76947 11.1423L3.06954 10.5292C3.54466 9.5533 4.28235 8.77758 5.15757 8.33967C5.32636 8.25209 5.48265 8.17076 5.49516 8.15825C5.50766 8.14574 5.40138 8.00811 5.2576 7.85172C4.6887 7.23239 4.41363 6.27525 4.55742 5.44323C4.75747 4.34221 5.50141 3.48516 6.56418 3.12858C7.09556 2.94716 7.97079 2.97219 8.51468 3.18488C9.24611 3.46639 9.91503 4.13577 10.1964 4.86144C10.5714 5.8436 10.3651 7.01344 9.67122 7.84546C9.52743 8.01437 9.43991 8.16451 9.47742 8.17702C9.7775 8.27711 10.4402 8.75881 10.8778 9.19672C11.4217 9.74723 11.7217 10.1789 11.9718 10.7982L12.1156 11.1548L12.3156 10.8795C12.5782 10.5167 12.922 9.82856 13.1033 9.30932C13.3221 8.65246 13.3972 8.03939 13.3597 7.15107C13.3221 6.2127 13.1909 5.67469 12.7845 4.84893ZM30.1139 26.688C31.3267 23.3974 29.545 19.8379 26.2129 18.8557C25.2314 18.5679 23.8811 18.5617 22.9871 18.8307C20.9678 19.4437 19.505 20.8513 18.8923 22.7718C18.486 24.0418 18.5485 25.6182 19.0611 26.8506C19.2549 27.3198 19.7863 28.2144 19.8676 28.2144C21.5055 30.4032 26.2129 31.9116 29.2137 28.2832L29.4262 27.9829C29.6701 27.6514 29.9701 27.0696 30.1139 26.688Z" fill="url(#paint0_linear_210_233)"/>
<path d="M29.1012 27.9829L29.2137 28.2832C26.2129 31.9116 21.5055 30.4032 19.8676 28.2144C19.8926 28.2144 19.9613 28.083 20.0301 27.9141C20.2302 27.4136 20.6678 26.7568 21.0804 26.3376C21.4555 25.956 22.2432 25.3868 22.5182 25.3054C22.637 25.2616 22.6245 25.2429 22.3932 24.9989C22.0681 24.6611 21.8493 24.267 21.7305 23.804C21.2867 22.1025 22.3744 20.4259 24.1186 20.1381C25.6815 19.8816 27.2132 21.0202 27.457 22.6342C27.5883 23.4475 27.3195 24.342 26.7506 24.9801L26.5005 25.2679L26.7693 25.4055C27.7883 25.9185 28.7261 26.9507 29.1012 27.9829Z" fill="url(#paint1_linear_210_233)"/>
</g>
</g>
<defs>
<linearGradient id="paint0_linear_210_233" x1="16" y1="32" x2="16" y2="0" gradientUnits="userSpaceOnUse">
<stop stop-color="#023568"/>
<stop offset="0.555" stop-color="#2B86E0"/>
<stop offset="1" stop-color="#006AD5"/>
</linearGradient>
<linearGradient id="paint1_linear_210_233" x1="16" y1="32" x2="16" y2="0" gradientUnits="userSpaceOnUse">
<stop stop-color="#023568"/>
<stop offset="0.555" stop-color="#2B86E0"/>
<stop offset="1" stop-color="#006AD5"/>
</linearGradient>
</defs>
</svg>
