<svg width="76" height="20" viewBox="0 0 76 20" fill="none" xmlns="http://www.w3.org/2000/svg">
<g id="A.I.R">
<path d="M0 20L5.23793 4.05714H2.57603V0H17.4956L24.0215 20H18.2254L16.5939 15H7.44903L5.81754 20H0ZM8.77998 10.9429H15.263L12.9875 4.05714H11.0555L8.77998 10.9429Z" fill="#002041"/>
<path d="M24.8782 20V15.3714H30.481V20H24.8782Z" fill="#002041"/>
<path d="M31.3468 4.05714V0H40.1482V20H34.5453V4.05714H31.3468Z" fill="#002041"/>
<path d="M43.1485 20V15.3714H48.7514V20H43.1485Z" fill="#002041"/>
<path d="M49.6171 15.5429V11.1143L52.8157 10.4V0H75.1199V9.82857L68.6368 11.2857L76 20H68.2504L62.1324 12.7429L58.4186 13.5714V20H52.8157V14.8286L49.6171 15.5429ZM58.4186 9.08571L69.517 6.6V4.05714H58.4186V9.08571Z" fill="#002041"/>
</g>
</svg>
