<svg width="31" height="31" viewBox="0 0 31 31" fill="none" xmlns="http://www.w3.org/2000/svg">
<g id="apple 1">
<path id="Vector" d="M19.762 4.94417C20.3479 4.26885 20.7947 3.48443 21.0766 2.63597C21.3586 1.7875 21.4701 0.891699 21.4049 0C19.606 0.145205 17.9362 0.991246 16.7552 2.35584C16.1896 3.00986 15.761 3.77071 15.4948 4.59334C15.2286 5.41597 15.1301 6.28366 15.2053 7.14503C16.0828 7.15234 16.9501 6.95763 17.7403 6.57599C18.5305 6.19435 19.2222 5.63601 19.762 4.94417ZM23.6677 16.4754C23.6781 15.2878 23.9909 14.1224 24.5767 13.0892C25.1624 12.056 26.0018 11.1891 27.0155 10.5703C26.3757 9.64848 25.53 8.8884 24.5453 8.35034C23.5607 7.81228 22.4642 7.51104 21.3429 7.4705C18.925 7.22252 16.6932 8.88091 15.4068 8.88091C14.1204 8.88091 12.307 7.5015 10.2921 7.5325C8.9749 7.57589 7.69142 7.95993 6.56685 8.64716C5.44229 9.3344 4.51504 10.3014 3.87554 11.4537C1.14772 16.1964 3.17809 23.2485 5.9059 27.0767C7.14582 28.9521 8.69572 31.0754 10.7416 30.9979C12.7874 30.9204 13.4539 29.727 15.8252 29.727C18.1966 29.727 18.925 30.9979 20.9399 30.9514C22.9548 30.9049 24.3807 29.0296 25.6826 27.1542C26.6048 25.7927 27.3253 24.3048 27.8214 22.737C26.5931 22.2131 25.5451 21.341 24.807 20.2282C24.0688 19.1154 23.6727 17.8108 23.6677 16.4754Z" fill="#0A66C2"/>
</g>
</svg>
