<svg width="46" height="45" viewBox="0 0 46 45" fill="none" xmlns="http://www.w3.org/2000/svg">
<g filter="url(#filter0_d_210_922)">
<rect x="3" y="1.5" width="40" height="40" rx="5" fill="#F0F4FF" shape-rendering="crispEdges"/>
<rect x="3" y="1.5" width="40" height="40" rx="5" stroke="#EAEBF0" shape-rendering="crispEdges"/>
<path d="M25.8852 30.5C23.881 31.8333 21.2519 31.8333 19.2477 30.5M15.5666 19.5C15.5666 15.634 18.7006 12.5 22.5666 12.5C26.4326 12.5 29.5666 15.634 29.5666 19.5V22.0778C29.5666 23.6572 30.0341 25.2013 30.9102 26.5154L31.0483 26.7226C31.2699 27.0549 31.0317 27.5 30.6323 27.5H14.5008C14.1015 27.5 13.8633 27.0549 14.0848 26.7227L14.223 26.5154C15.0991 25.2013 15.5666 23.6572 15.5666 22.0778V19.5Z" stroke="#002041" stroke-width="2" stroke-linecap="round"/>
</g>
<defs>
<filter id="filter0_d_210_922" x="0.5" y="0" width="45" height="45" filterUnits="userSpaceOnUse" color-interpolation-filters="sRGB">
<feFlood flood-opacity="0" result="BackgroundImageFix"/>
<feColorMatrix in="SourceAlpha" type="matrix" values="0 0 0 0 0 0 0 0 0 0 0 0 0 0 0 0 0 0 127 0" result="hardAlpha"/>
<feOffset dy="1"/>
<feGaussianBlur stdDeviation="1"/>
<feComposite in2="hardAlpha" operator="out"/>
<feColorMatrix type="matrix" values="0 0 0 0 0.0627451 0 0 0 0 0.0941176 0 0 0 0 0.156863 0 0 0 0.04 0"/>
<feBlend mode="normal" in2="BackgroundImageFix" result="effect1_dropShadow_210_922"/>
<feBlend mode="normal" in="SourceGraphic" in2="effect1_dropShadow_210_922" result="shape"/>
</filter>
</defs>
</svg>
