<svg width="42" height="38" viewBox="0 0 42 38" fill="none" xmlns="http://www.w3.org/2000/svg">
<path d="M1 10.6C1 7.23968 1 5.55953 1.65396 4.27606C2.2292 3.14708 3.14708 2.2292 4.27606 1.65396C5.55953 1 7.23969 1 10.6 1H31.4C34.7603 1 36.4405 1 37.7239 1.65396C38.8529 2.2292 39.7708 3.14708 40.346 4.27606C41 5.55953 41 7.23969 41 10.6V27.4C41 30.7603 41 32.4405 40.346 33.7239C39.7708 34.8529 38.8529 35.7708 37.7239 36.346C36.4405 37 34.7603 37 31.4 37H10.6C7.23969 37 5.55953 37 4.27606 36.346C3.14708 35.7708 2.2292 34.8529 1.65396 33.7239C1 32.4405 1 30.7603 1 27.4V10.6Z" stroke="#0A66C2"/>
<path d="M15.6667 14.3333V24.8576C15.6667 25.2293 16.0579 25.4711 16.3904 25.3048L20.1057 23.4472C20.6687 23.1657 21.3315 23.1657 21.8945 23.4472L25.6098 25.3048C25.9423 25.4711 26.3334 25.2293 26.3334 24.8576V14.3333C26.3334 13.2287 25.438 12.3333 24.3334 12.3333H17.6667C16.5622 12.3333 15.6667 13.2287 15.6667 14.3333Z" stroke="#0A66C2" stroke-width="2" stroke-linecap="round"/>
</svg>
