<svg width="21" height="20" viewBox="0 0 21 20" fill="none" xmlns="http://www.w3.org/2000/svg">
<g id="Frame 1000000906">
<g id="Black">
<path id="Vector" d="M3.71845 0.0752525C3.25838 0.184643 2.90682 0.368263 2.5596 0.680807C2.20803 0.997259 2.00838 1.3098 1.88685 1.73955C1.80005 2.03647 1.80005 2.20056 1.80005 9.99856C1.80005 17.7966 1.80005 17.9606 1.88685 18.2576C2.00838 18.6873 2.20803 18.9999 2.5596 19.3163C2.91116 19.6328 3.25838 19.8125 3.73581 19.9219C4.06133 19.9961 4.23928 20 10.1334 20C16.0275 20 16.2054 19.9961 16.531 19.9219C17.0084 19.8125 17.3556 19.6328 17.7072 19.3163C18.0587 18.9999 18.2584 18.6873 18.3799 18.2576C18.4667 17.9606 18.4667 17.7966 18.4667 9.99856C18.4667 2.20056 18.4667 2.03647 18.3799 1.73955C18.2584 1.31371 18.0587 0.997259 17.7072 0.680807C17.3556 0.360449 17.0127 0.184643 16.531 0.0752525C16.2054 0.00102234 16.0318 -0.00288582 10.116 0.00102043C4.27401 0.00102043 4.02227 0.00492859 3.71845 0.0752525ZM16.4702 1.38794C16.7306 1.51686 16.9563 1.77472 17.0344 2.02084C17.0952 2.22009 17.0952 17.777 17.0344 17.9763C16.9563 18.2224 16.7306 18.4802 16.4702 18.6092L16.2315 18.7303H10.1334H4.03529L3.80092 18.6131C3.53182 18.4802 3.30178 18.2263 3.23668 17.9802C3.17158 17.7458 3.17158 2.224 3.23668 2.01303C3.33651 1.68876 3.66637 1.38403 4.01793 1.29418C4.11342 1.26683 6.31828 1.25511 10.1985 1.25902L16.2315 1.26683L16.4702 1.38794Z" fill="#454B5B"/>
<path id="Vector_2" d="M7.09862 3.37685C6.80141 3.43163 6.33368 3.67813 6.13391 3.88811C6.03647 3.98853 5.8903 4.20308 5.8026 4.37198L5.65156 4.67325L5.63694 6.09747C5.6272 7.01499 5.63694 7.60842 5.67105 7.76362C5.79773 8.32509 6.16315 8.777 6.68935 9.01894C6.96707 9.14675 6.96707 9.14675 8.11205 9.16045C9.24241 9.17414 9.2619 9.17414 9.42756 9.06915C9.67117 8.91851 9.83683 8.58985 9.79298 8.34335C9.74913 8.10141 9.48116 7.8184 9.24241 7.75449C9.1401 7.73166 8.67236 7.70884 8.19975 7.70884C7.3666 7.70884 7.33736 7.70428 7.26428 7.60842C7.19607 7.52168 7.18632 7.3117 7.18632 6.23898C7.18632 5.02931 7.19119 4.9654 7.28377 4.87867C7.37634 4.79194 7.44455 4.78737 8.32643 4.78737C9.22293 4.78737 9.27652 4.78281 9.43243 4.68238C9.67117 4.53631 9.83683 4.20308 9.79298 3.96114C9.74913 3.71921 9.48116 3.43619 9.24241 3.37229C9.02804 3.31751 7.4007 3.32207 7.09862 3.37685Z" fill="#454B5B"/>
<path id="Vector_3" d="M11.169 3.37933C10.9622 3.43407 10.6768 3.73057 10.6374 3.9404C10.6079 4.07724 10.7309 4.54252 11.2969 6.42186C11.6759 7.69452 12.0303 8.78472 12.0795 8.84858C12.4141 9.2728 13.0343 9.2728 13.3689 8.84858C13.4182 8.78472 13.7725 7.69452 14.1515 6.42186C14.934 3.81267 14.9193 3.89478 14.5748 3.57547C14.3041 3.32003 14.0481 3.27442 13.7184 3.42951C13.5904 3.48424 13.4428 3.59828 13.3886 3.67583C13.3345 3.74881 13.1672 4.22777 13.0195 4.7341C13.0195 4.7341 12.7315 6.25008 12.7167 6.25008C12.7019 6.25008 12.4289 4.7341 12.4289 4.7341C12.2813 4.22777 12.1139 3.74881 12.0598 3.67583C11.9515 3.5253 11.5824 3.32459 11.42 3.33371C11.3658 3.33371 11.2526 3.35652 11.169 3.37933Z" fill="#454B5B"/>
<path id="Vector_4" d="M5.98407 10.8619C5.78876 10.9127 5.55004 11.1666 5.51098 11.362C5.47192 11.569 5.61949 11.8542 5.83216 11.9792L5.97973 12.0691H10.1334H14.287L14.4346 11.9792C14.6473 11.8542 14.7948 11.569 14.7558 11.362C14.7167 11.1549 14.478 10.9127 14.2653 10.858C14.0613 10.8072 6.17504 10.8111 5.98407 10.8619Z" fill="#454B5B"/>
<path id="Vector_5" d="M5.86254 15.0892C5.38945 15.3275 5.40247 15.9526 5.88424 16.1714C6.04483 16.2456 6.15768 16.2495 10.1334 16.2495C14.1091 16.2495 14.2219 16.2456 14.3825 16.1714C14.873 15.9487 14.873 15.3002 14.3825 15.0775C14.2219 15.0032 14.1091 14.9993 10.1247 14.9993H6.03181L5.86254 15.0892Z" fill="#454B5B"/>
</g>
</g>
</svg>
