<svg width="42" height="42" viewBox="0 0 42 42" fill="none" xmlns="http://www.w3.org/2000/svg">
<path d="M1 10.6C1 7.23969 1 5.55953 1.65396 4.27606C2.2292 3.14708 3.14708 2.2292 4.27606 1.65396C5.55953 1 7.23969 1 10.6 1H31.4C34.7603 1 36.4405 1 37.7239 1.65396C38.8529 2.2292 39.7708 3.14708 40.346 4.27606C41 5.55953 41 7.23969 41 10.6V31.4C41 34.7603 41 36.4405 40.346 37.7239C39.7708 38.8529 38.8529 39.7708 37.7239 40.346C36.4405 41 34.7603 41 31.4 41H10.6C7.23969 41 5.55953 41 4.27606 40.346C3.14708 39.7708 2.2292 38.8529 1.65396 37.7239C1 36.4405 1 34.7603 1 31.4V10.6Z" stroke="#0A66C2"/>
<path d="M26 16.6666L25.5868 23.35C25.4813 25.0576 25.4285 25.9114 25.0005 26.5252C24.7889 26.8287 24.5164 27.0848 24.2005 27.2773C23.5614 27.6666 22.706 27.6666 20.9952 27.6666C19.2821 27.6666 18.4255 27.6666 17.786 27.2766C17.4699 27.0837 17.1973 26.8272 16.9858 26.5232C16.5579 25.9084 16.5063 25.0534 16.4031 23.3434L16 16.6666" stroke="#0A66C2" stroke-width="1.5" stroke-linecap="round"/>
<path d="M15 16.6666H27M23.7038 16.6666L23.2487 15.7278C22.9464 15.1042 22.7952 14.7923 22.5345 14.5979C22.4766 14.5547 22.4154 14.5163 22.3513 14.4831C22.0626 14.3333 21.7161 14.3333 21.023 14.3333C20.3126 14.3333 19.9573 14.3333 19.6638 14.4894C19.5987 14.524 19.5367 14.5639 19.4782 14.6088C19.2144 14.8111 19.0671 15.1343 18.7724 15.7808L18.3686 16.6666" stroke="#0A66C2" stroke-width="1.5" stroke-linecap="round"/>
<path d="M19.333 24L19.333 20" stroke="#0A66C2" stroke-width="1.5" stroke-linecap="round"/>
<path d="M22.667 24L22.667 20" stroke="#0A66C2" stroke-width="1.5" stroke-linecap="round"/>
</svg>
