<svg width="14" height="16" viewBox="0 0 14 16" fill="none" xmlns="http://www.w3.org/2000/svg">
<g id="elements">
<path id="Vector" d="M12 3.66663L11.5868 10.35C11.4813 12.0576 11.4285 12.9114 11.0005 13.5252C10.7889 13.8287 10.5164 14.0848 10.2005 14.2773C9.56141 14.6666 8.70599 14.6666 6.99516 14.6666C5.28208 14.6666 4.42554 14.6666 3.78604 14.2766C3.46987 14.0837 3.19733 13.8272 2.98579 13.5232C2.55792 12.9084 2.5063 12.0534 2.40307 10.3434L2 3.66663" stroke="red" stroke-width="1.5" stroke-linecap="round"/>
<path id="Vector_2" d="M1 3.66665H13M9.70382 3.66665L9.2487 2.7278C8.94638 2.10415 8.79522 1.79233 8.53448 1.59785C8.47664 1.55471 8.4154 1.51634 8.35135 1.48311C8.06261 1.33331 7.71608 1.33331 7.02302 1.33331C6.31255 1.33331 5.95732 1.33331 5.66379 1.48939C5.59873 1.52398 5.53666 1.56391 5.4782 1.60876C5.21443 1.81111 5.06709 2.13435 4.7724 2.78082L4.36862 3.66665" stroke="red" stroke-width="1.5" stroke-linecap="round"/>
<path id="Vector_3" d="M5.33301 11L5.33301 7" stroke="red" stroke-width="1.5" stroke-linecap="round"/>
<path id="Vector_4" d="M8.66699 11L8.66699 7" stroke="red" stroke-width="1.5" stroke-linecap="round"/>
</g>
</svg>