<svg width="31" height="31" viewBox="0 0 31 31" fill="none" xmlns="http://www.w3.org/2000/svg">
<g id="facebook-logo-2019 1" clip-path="url(#clip0_156_6399)">
<path id="Vector" d="M31 15.5948C31 6.98201 24.0604 0 15.5 0C6.93959 0 0 6.98201 0 15.5948C0 23.3786 5.66813 29.8302 13.0781 31V20.1026H9.14258V15.5948H13.0781V12.159C13.0781 8.2506 15.3922 6.0917 18.9327 6.0917C20.6286 6.0917 22.4023 6.39629 22.4023 6.39629V10.2341H20.4478C18.5224 10.2341 17.9219 11.4362 17.9219 12.6694V15.5948H22.2207L21.5335 20.1026H17.9219V31C25.3319 29.8302 31 23.3786 31 15.5948Z" fill="#0A66C2"/>
</g>
<defs>
<clipPath id="clip0_156_6399">
<rect width="31" height="31" fill="white"/>
</clipPath>
</defs>
</svg>
