<svg width="16" height="18" viewBox="0 0 16 18" fill="none" xmlns="http://www.w3.org/2000/svg">
<g id="elements">
<path id="Vector" d="M3.8335 16.5L3.8335 14" stroke="#141B34" stroke-width="1.5" stroke-linecap="round" stroke-linejoin="round"/>
<path id="Vector_2" d="M12.167 16.5L12.167 11.5" stroke="#141B34" stroke-width="1.5" stroke-linecap="round" stroke-linejoin="round"/>
<path id="Vector_3" d="M12.167 4L12.167 1.5" stroke="#141B34" stroke-width="1.5" stroke-linecap="round" stroke-linejoin="round"/>
<path id="Vector_4" d="M3.8335 6.5L3.8335 1.5" stroke="#141B34" stroke-width="1.5" stroke-linecap="round" stroke-linejoin="round"/>
<path id="Vector_5" d="M3.8335 14C3.05693 14 2.66864 14 2.36236 13.8731C1.95398 13.704 1.62952 13.3795 1.46036 12.9711C1.3335 12.6649 1.3335 12.2766 1.3335 11.5C1.3335 10.7234 1.3335 10.3351 1.46036 10.0289C1.62952 9.62048 1.95398 9.29602 2.36236 9.12687C2.66864 9 3.05693 9 3.8335 9C4.61007 9 4.99835 9 5.30464 9.12687C5.71302 9.29602 6.03747 9.62048 6.20663 10.0289C6.3335 10.3351 6.3335 10.7234 6.3335 11.5C6.3335 12.2766 6.3335 12.6649 6.20663 12.9711C6.03747 13.3795 5.71302 13.704 5.30464 13.8731C4.99835 14 4.61007 14 3.8335 14Z" stroke="#141B34" stroke-width="1.5"/>
<path id="Vector_6" d="M12.167 9C11.3904 9 11.0021 9 10.6959 8.87313C10.2875 8.70398 9.96302 8.37952 9.79386 7.97114C9.66699 7.66485 9.66699 7.27657 9.66699 6.5C9.66699 5.72343 9.66699 5.33515 9.79386 5.02886C9.96302 4.62048 10.2875 4.29602 10.6959 4.12687C11.0021 4 11.3904 4 12.167 4C12.9436 4 13.3318 4 13.6381 4.12687C14.0465 4.29602 14.371 4.62048 14.5401 5.02886C14.667 5.33515 14.667 5.72343 14.667 6.5C14.667 7.27657 14.667 7.66485 14.5401 7.97114C14.371 8.37952 14.0465 8.70398 13.6381 8.87313C13.3318 9 12.9436 9 12.167 9Z" stroke="#141B34" stroke-width="1.5"/>
</g>
</svg>
