<svg width="31" height="31" viewBox="0 0 31 31" fill="none" xmlns="http://www.w3.org/2000/svg">
<g id="google 1" clip-path="url(#clip0_156_6394)">
<path id="Vector" d="M30.9836 15.7901C30.9836 14.52 30.8781 13.5932 30.6499 12.6321H15.8087V18.3645H24.5201C24.3446 19.7891 23.3962 21.9344 21.2885 23.3761L21.2589 23.568L25.9515 27.1203L26.2766 27.152C29.2623 24.4574 30.9836 20.4927 30.9836 15.7901Z" fill="#0A66C2"/>
<path id="Vector_2" d="M15.8087 30.8934C20.0766 30.8934 23.6595 29.5203 26.2766 27.1519L21.2885 23.3759C19.9537 24.2856 18.1622 24.9206 15.8087 24.9206C11.6286 24.9206 8.08083 22.2261 6.81614 18.5017L6.63077 18.5171L1.75143 22.2072L1.68762 22.3805C4.28699 27.4264 9.62632 30.8934 15.8087 30.8934Z" fill="#0A66C2"/>
<path id="Vector_3" d="M6.81616 18.5019C6.48246 17.5407 6.28934 16.5109 6.28934 15.4468C6.28934 14.3826 6.48246 13.3529 6.79861 12.3918L6.78977 12.1871L1.84929 8.43774L1.68764 8.51288C0.616317 10.6068 0.00158691 12.9582 0.00158691 15.4468C0.00158691 17.9355 0.616317 20.2867 1.68764 22.3806L6.81616 18.5019Z" fill="#0A66C2"/>
<path id="Vector_4" d="M15.8087 5.97271C18.7769 5.97271 20.7791 7.2256 21.9208 8.27262L26.3819 4.01616C23.6421 1.52752 20.0766 0 15.8087 0C9.62632 0 4.287 3.46691 1.68762 8.51281L6.79858 12.3917C8.08084 8.66734 11.6286 5.97271 15.8087 5.97271Z" fill="#0A66C2"/>
</g>
<defs>
<clipPath id="clip0_156_6394">
<rect width="31" height="31" fill="white"/>
</clipPath>
</defs>
</svg>
