<svg width="24" height="24" viewBox="0 0 24 24" fill="none" xmlns="http://www.w3.org/2000/svg">
<g id="Menu Icons" clip-path="url(#clip0_210_266)">
<path id="Vector" d="M4.72284 10.6671L2.66284 12.4891C2.38617 12.733 2.20259 13.0653 2.14335 13.4294C2.08411 13.7935 2.15287 14.1668 2.33793 14.4859L4.20276 17.7575C4.3855 18.0739 4.67199 18.3174 5.0137 18.4467C5.35541 18.576 5.73132 18.5832 6.07774 18.4671L8.6691 17.5838M8.90714 3.63986C8.39206 5.22178 7.74681 6.75831 6.978 8.23368C6.40138 9.19145 5.63325 10.0199 4.72171 10.6671M8.6691 17.5623C9.69008 17.0919 10.7966 16.8354 11.9204 16.8087C13.572 16.8832 15.2146 17.0908 16.8313 17.4315M2.47898 14.7251L1.79532 15.1289C1.61336 15.2333 1.45401 15.3728 1.32656 15.5394C1.19911 15.7059 1.10611 15.8962 1.053 16.0991C0.999044 16.3021 0.986121 16.5138 1.01498 16.7219C1.04385 16.9299 1.11392 17.1301 1.22109 17.3108C1.3242 17.4929 1.46246 17.6527 1.62786 17.7809C1.79325 17.9091 1.98247 18.0032 2.18453 18.0576C2.38636 18.1119 2.59706 18.125 2.80406 18.0961C3.01106 18.0672 3.21013 17.997 3.38939 17.8895L4.02905 17.4856M9.44868 17.2566L11.3677 20.6072C11.5728 20.9743 11.6276 21.4067 11.5206 21.8134C11.4135 22.2201 11.1528 22.5695 10.7934 22.7879C10.6126 22.8923 10.4128 22.9598 10.2057 22.9867C9.99866 23.0136 9.78831 22.9992 9.58679 22.9445C9.38527 22.8898 9.19656 22.7957 9.03152 22.6678C8.86648 22.5399 8.72837 22.3806 8.62513 22.199L6.45683 18.3475M20.6151 6.23687L17.797 7.87268M23 11.8562H19.7475M16.767 1L15.1402 3.83729M8.90153 3.641L10.2722 2.84452C10.4522 2.73947 10.6512 2.67119 10.8578 2.64367C11.0643 2.61614 11.2743 2.6299 11.4755 2.68416C11.6766 2.73842 11.8651 2.83209 12.0298 2.95974C12.1945 3.0874 12.3322 3.24648 12.4349 3.42778L18.7604 14.4543C18.9659 14.8201 19.0197 15.2519 18.9102 15.6569C18.8007 16.062 18.5367 16.4079 18.1749 16.6203L16.8042 17.4179L8.90153 3.641Z" stroke="#454B5B" stroke-width="1.3" stroke-linecap="round" stroke-linejoin="round"/>
</g>
<defs>
<clipPath id="clip0_210_266">
<rect width="24" height="24" fill="white"/>
</clipPath>
</defs>
</svg>
