<svg width="22" height="22" viewBox="0 0 22 22" fill="none" xmlns="http://www.w3.org/2000/svg">
<g id="Black">
<path id="Vector" d="M1.66051 0.0721455C1.07978 0.213921 0.456026 0.6908 0.219431 1.18057C-0.0085611 1.64886 4.23686e-05 1.13331 4.23686e-05 10.9673C4.23686e-05 17.5234 0.0129476 20.1698 0.0473615 20.3331C0.206526 21.0935 0.868993 21.7423 1.68202 21.9356C1.91862 21.9871 2.52946 22 5.8332 22H9.70906L9.89834 21.9012C10.1177 21.7852 10.2812 21.536 10.2812 21.3126C10.2812 21.0892 10.1177 20.8401 9.89834 20.7241L9.70906 20.6252H5.87191H2.03476L1.84979 20.5264C1.72074 20.4577 1.6304 20.3675 1.56157 20.2386L1.46263 20.0538V11.006V1.95389L1.56157 1.76485C1.6261 1.63167 1.71213 1.54575 1.84549 1.47701L2.03476 1.37819H8.79279H15.5551L15.7444 1.47271C15.8519 1.52856 15.981 1.63597 16.0326 1.7176L16.1316 1.86367V6.07825C16.1316 8.9782 16.1488 10.3444 16.1789 10.4647C16.2907 10.8728 16.751 11.1091 17.1511 10.9545C17.3317 10.89 17.5468 10.6623 17.5941 10.4862C17.6501 10.28 17.6501 2.19018 17.5941 1.79063C17.4737 0.957167 16.7854 0.248291 15.9208 0.0635529C15.4949 -0.0266666 2.03907 -0.0180759 1.66051 0.0721455Z" fill="#454B5B"/>
<path id="Vector_2" d="M4.05673 5.59287C3.55343 5.84205 3.55773 6.54663 4.06103 6.78722C4.2417 6.87744 4.28042 6.87744 8.80155 6.87744H13.3614L13.5507 6.77863C14.0411 6.53374 14.0755 5.94946 13.6238 5.61435C13.5033 5.52413 13.4947 5.52413 8.87037 5.51124C4.2417 5.50265 4.2374 5.50265 4.05673 5.59287Z" fill="#454B5B"/>
<path id="Vector_3" d="M4.12987 9.67412C3.9535 9.74286 3.74272 9.97485 3.6954 10.151C3.61367 10.4646 3.82015 10.8341 4.14278 10.9544C4.22451 10.9888 5.70861 11.0016 8.81447 11.0016H13.3614L13.5507 10.9028C14.0626 10.6451 14.0755 10.0092 13.5722 9.72567L13.4001 9.62686L8.81877 9.63116C5.89789 9.63116 4.1987 9.64834 4.12987 9.67412Z" fill="#454B5B"/>
<path id="Vector_4" d="M16.2434 12.4495C15.6369 12.5784 15.1594 12.8362 14.7206 13.2787C13.7785 14.2325 13.6925 15.7147 14.5227 16.7458C14.6045 16.8446 14.669 16.9348 14.669 16.9477C14.669 16.9606 14.5399 17.0379 14.3808 17.1195C13.0171 17.8069 12.0277 19.1602 11.804 20.6252C11.6836 21.4243 11.7567 21.7036 12.1267 21.9012L12.316 22H16.8758C21.4141 22 21.4399 22 21.6249 21.9098C21.7239 21.8626 21.8529 21.7594 21.9045 21.6864C21.9949 21.5618 22.0035 21.5017 21.9992 21.0978C21.982 19.5383 20.8979 17.8671 19.4138 17.1281C19.2417 17.0422 19.0998 16.9606 19.0998 16.9477C19.0998 16.9348 19.1686 16.8403 19.2547 16.7458C19.4654 16.4966 19.6848 16.024 19.7623 15.633C19.8483 15.2249 19.8483 15.0488 19.7709 14.6406C19.6461 13.9876 19.2762 13.4076 18.7169 12.9866C18.0244 12.4624 17.0995 12.2648 16.2434 12.4495ZM17.577 13.9231C17.7232 13.9962 17.9082 14.1251 17.9856 14.211C18.6223 14.9371 18.3814 15.9724 17.4823 16.3806C17.1597 16.5267 16.5876 16.5181 16.2563 16.3634C15.4261 15.9767 15.1766 15.0101 15.7229 14.2926C16.1144 13.7771 16.9446 13.6095 17.577 13.9231ZM17.8652 18.0003C18.8847 18.2666 19.7451 18.9497 20.1967 19.8519C20.3129 20.0796 20.4763 20.5135 20.4763 20.5909C20.4763 20.6081 18.8589 20.6252 16.8844 20.6252C14.9099 20.6252 13.2924 20.6209 13.2924 20.6124C13.2924 20.6038 13.3226 20.4921 13.3613 20.3632C13.5204 19.8176 13.9807 19.1259 14.4238 18.765C14.9013 18.3783 15.5896 18.0475 16.1617 17.9401C16.6134 17.8542 17.4178 17.8843 17.8652 18.0003Z" fill="#454B5B"/>
<path id="Vector_5" d="M4.05665 13.8413C3.76843 13.983 3.61787 14.301 3.6996 14.6017C3.74692 14.7821 3.95771 15.0098 4.14268 15.0786C4.22442 15.1129 5.49773 15.1258 8.09168 15.1258C11.8213 15.1258 11.9245 15.1215 12.088 15.0399C12.3418 14.911 12.4536 14.722 12.4536 14.4298C12.4536 14.1334 12.359 13.9873 12.088 13.8456L11.8987 13.751H8.06587C4.26743 13.751 4.23732 13.751 4.05665 13.8413Z" fill="#454B5B"/>
</g>
</svg>
