<svg width="42" height="42" viewBox="0 0 42 42" fill="none" xmlns="http://www.w3.org/2000/svg">
<g filter="url(#filter0_d_278_2860)">
<path d="M3 20C3 10.0589 11.0589 2 21 2C30.9411 2 39 10.0589 39 20C39 29.9411 30.9411 38 21 38C11.0589 38 3 29.9411 3 20Z" fill="white"/>
<path d="M3 20C3 10.0589 11.0589 2 21 2C30.9411 2 39 10.0589 39 20C39 29.9411 30.9411 38 21 38C11.0589 38 3 29.9411 3 20Z" stroke="#EEEEEE"/>
<path d="M20.165 23.3334C20.165 23.7945 20.5388 24.1684 21 24.1684C21.4612 24.1684 21.835 23.7945 21.835 23.3334H20.165ZM21.835 14.1667C21.835 13.7055 21.4612 13.3317 21 13.3317C20.5388 13.3317 20.165 13.7055 20.165 14.1667L21.835 14.1667ZM23.7429 16.4238C24.069 16.7499 24.5977 16.7499 24.9238 16.4238C25.2499 16.0977 25.2499 15.569 24.9238 15.2429L23.7429 16.4238ZM21.5893 13.0893L20.9988 13.6797L21.5893 13.0893ZM20.4107 13.0893L21.0012 13.6797L21.0012 13.6797L20.4107 13.0893ZM17.0762 15.2429C16.7501 15.569 16.7501 16.0977 17.0762 16.4238C17.4023 16.7499 17.931 16.7499 18.2571 16.4238L17.0762 15.2429ZM14.335 23.3334C14.335 22.8722 13.9612 22.4984 13.5 22.4984C13.0388 22.4984 12.665 22.8722 12.665 23.3334H14.335ZM29.335 23.3334C29.335 22.8722 28.9612 22.4984 28.5 22.4984C28.0388 22.4984 27.665 22.8722 27.665 23.3334H29.335ZM27.135 27.2276L26.7559 26.4836H26.7559L27.135 27.2276ZM28.2275 26.135L28.9715 26.5141V26.5141L28.2275 26.135ZM13.7725 26.135L13.0285 26.5141L13.7725 26.135ZM14.865 27.2276L14.4859 27.9715H14.4859L14.865 27.2276ZM21.835 23.3334L21.835 14.1667L20.165 14.1667L20.165 23.3334H21.835ZM24.9238 15.2429L22.1797 12.4989L20.9988 13.6797L23.7429 16.4238L24.9238 15.2429ZM19.8203 12.4989L17.0762 15.2429L18.2571 16.4238L21.0012 13.6797L19.8203 12.4989ZM22.1797 12.4989C21.5282 11.8473 20.4718 11.8473 19.8203 12.4989L21.0012 13.6797C21.0021 13.6788 21.0016 13.6795 21.0002 13.68C20.9994 13.6804 20.9994 13.6802 21 13.6802C21.0006 13.6802 21.0006 13.6804 20.9998 13.68C20.9984 13.6795 20.9979 13.6788 20.9988 13.6797L22.1797 12.4989ZM12.665 23.3334V23.5H14.335V23.3334H12.665ZM17.5 28.335H24.5V26.665H17.5V28.335ZM29.335 23.5V23.3334H27.665V23.5H29.335ZM24.5 28.335C25.1863 28.335 25.7512 28.3357 26.21 28.2982C26.6785 28.2599 27.1093 28.1778 27.5141 27.9715L26.7559 26.4836C26.6258 26.5498 26.4392 26.6039 26.074 26.6337C25.699 26.6644 25.2138 26.665 24.5 26.665V28.335ZM27.665 23.5C27.665 24.2139 27.6644 24.699 27.6337 25.074C27.6039 25.4393 27.5498 25.6259 27.4835 25.7559L28.9715 26.5141C29.1777 26.1094 29.2599 25.6785 29.2982 25.21C29.3356 24.7513 29.335 24.1863 29.335 23.5H27.665ZM27.5141 27.9715C28.1416 27.6518 28.6518 27.1416 28.9715 26.5141L27.4835 25.7559C27.3239 26.0692 27.0692 26.3239 26.7559 26.4836L27.5141 27.9715ZM12.665 23.5C12.665 24.1863 12.6644 24.7513 12.7018 25.21C12.7401 25.6785 12.8223 26.1094 13.0285 26.5141L14.5165 25.7559C14.4502 25.6259 14.3961 25.4393 14.3663 25.074C14.3356 24.699 14.335 24.2139 14.335 23.5H12.665ZM17.5 26.665C16.7862 26.665 16.301 26.6644 15.926 26.6337C15.5608 26.6039 15.3742 26.5498 15.2441 26.4836L14.4859 27.9715C14.8907 28.1778 15.3215 28.2599 15.79 28.2982C16.2488 28.3357 16.8137 28.335 17.5 28.335V26.665ZM13.0285 26.5141C13.3482 27.1416 13.8584 27.6518 14.4859 27.9715L15.2441 26.4836C14.9308 26.3239 14.6761 26.0692 14.5165 25.7559L13.0285 26.5141Z" fill="#0A66C2"/>
</g>
<defs>
<filter id="filter0_d_278_2860" x="0.5" y="0.5" width="41" height="41" filterUnits="userSpaceOnUse" color-interpolation-filters="sRGB">
<feFlood flood-opacity="0" result="BackgroundImageFix"/>
<feColorMatrix in="SourceAlpha" type="matrix" values="0 0 0 0 0 0 0 0 0 0 0 0 0 0 0 0 0 0 127 0" result="hardAlpha"/>
<feOffset dy="1"/>
<feGaussianBlur stdDeviation="1"/>
<feComposite in2="hardAlpha" operator="out"/>
<feColorMatrix type="matrix" values="0 0 0 0 0.0627451 0 0 0 0 0.0941176 0 0 0 0 0.156863 0 0 0 0.04 0"/>
<feBlend mode="normal" in2="BackgroundImageFix" result="effect1_dropShadow_278_2860"/>
<feBlend mode="normal" in="SourceGraphic" in2="effect1_dropShadow_278_2860" result="shape"/>
</filter>
</defs>
</svg>
